HIERARCHY
ROOT C_Skin_root_JNT
{
  OFFSET 0.0165810237769 3.12063172131 9.74970098501
  CHANNELS 6 Xposition Yposition Zposition Zrotation Xrotation Yrotation
  JOINT C_Skin_spine1_JNT
  {
    OFFSET 0.644014782729 5.45785638906e-13 -3.5527136788e-15
    CHANNELS 6 Xposition Yposition Zposition Zrotation Xrotation Yrotation
    JOINT C_Skin_spine2_JNT
    {
      OFFSET 0.46880628262 1.33226762955e-15 1.7763568394e-15
      CHANNELS 6 Xposition Yposition Zposition Zrotation Xrotation Yrotation
      JOINT C_Skin_spine3_JNT
      {
        OFFSET 0.471752508257 -8.881784197e-16 8.881784197e-16
        CHANNELS 6 Xposition Yposition Zposition Zrotation Xrotation Yrotation
        JOINT C_Skin_spine4_JNT
        {
          OFFSET 0.475049907155 -8.881784197e-16 8.881784197e-16
          CHANNELS 6 Xposition Yposition Zposition Zrotation Xrotation Yrotation
          JOINT C_Skin_spine5_JNT
          {
            OFFSET 0.480774621422 4.4408920985e-16 0.0
            CHANNELS 6 Xposition Yposition Zposition Zrotation Xrotation Yrotation
            JOINT C_Skin_spine6_JNT
            {
              OFFSET 0.472515090902 0.0 -1.7763568394e-15
              CHANNELS 6 Xposition Yposition Zposition Zrotation Xrotation Yrotation
              JOINT C_Skin_chest_JNT
              {
                OFFSET 0.457560025742 -1.7763568394e-15 8.881784197e-16
                CHANNELS 6 Xposition Yposition Zposition Zrotation Xrotation Yrotation
                JOINT C_Skin_neck1_JNT
                {
                  OFFSET 0.34161073645 1.74916930895e-06 2.01401621602e-07
                  CHANNELS 6 Xposition Yposition Zposition Zrotation Xrotation Yrotation
                  JOINT C_Skin_neck2_JNT
                  {
                    OFFSET 0.184478954913 9.99200722163e-16 -3.10862446895e-15
                    CHANNELS 6 Xposition Yposition Zposition Zrotation Xrotation Yrotation
                    JOINT C_Skin_neck3_JNT
                    {
                      OFFSET 0.18444323203 -7.77156117238e-15 4.4408920985e-16
                      CHANNELS 6 Xposition Yposition Zposition Zrotation Xrotation Yrotation
                      JOINT C_Skin_neck4_JNT
                      {
                        OFFSET 0.184462138322 -3.10862446895e-15 -3.5527136788e-15
                        CHANNELS 6 Xposition Yposition Zposition Zrotation Xrotation Yrotation
                        JOINT C_Skin_neck5_JNT
                        {
                          OFFSET 0.184523960468 3.5527136788e-15 -4.4408920985e-16
                          CHANNELS 6 Xposition Yposition Zposition Zrotation Xrotation Yrotation
                          JOINT C_Skin_neck6_JNT
                          {
                            OFFSET 0.184578072718 -6.88338275268e-15 -8.881784197e-16
                            CHANNELS 6 Xposition Yposition Zposition Zrotation Xrotation Yrotation
                            JOINT C_Skin_head_JNT
                            {
                              OFFSET 0.193620833307 0.00477040198153 -1.33226762955e-15
                              CHANNELS 6 Xposition Yposition Zposition Zrotation Xrotation Yrotation
                              JOINT C_Skin_headTip_JNT
                              {
                                OFFSET 0.766066184347 -0.215410263987 -1.7763568394e-15
                                CHANNELS 6 Xposition Yposition Zposition Zrotation Xrotation Yrotation
                                End Site
                                {
                                  OFFSET 0 0 0
                                }
                              }
                              JOINT C_Skin_jaw_JNT
                              {
                                OFFSET -0.000740198535079 -0.109606680879 0.000105409300607
                                CHANNELS 6 Xposition Yposition Zposition Zrotation Xrotation Yrotation
                                JOINT joint2
                                {
                                  OFFSET 0.80327889985 -2.22044604925e-16 0.0
                                  CHANNELS 6 Xposition Yposition Zposition Zrotation Xrotation Yrotation
                                  End Site
                                  {
                                    OFFSET 0 0 0
                                  }
                                }
                              }
                            }
                          }
                        }
                      }
                    }
                  }
                }
                JOINT L_Skin_clavicle_JNT
                {
                  OFFSET 0.00675082468563 0.0196956401886 -0.383986868007
                  CHANNELS 6 Xposition Yposition Zposition Zrotation Xrotation Yrotation
                  JOINT L_Skin_shoulder_JNT
                  {
                    OFFSET 0.910590239312 -1.7763568394e-15 -1.06581410364e-14
                    CHANNELS 6 Xposition Yposition Zposition Zrotation Xrotation Yrotation
                    JOINT L_Skin_edbow_JNT
                    {
                      OFFSET 0.940271685332 3.5527136788e-15 8.881784197e-16
                      CHANNELS 6 Xposition Yposition Zposition Zrotation Xrotation Yrotation
                      JOINT L_Skin_wrist_JNT
                      {
                        OFFSET 1.30583589376 1.7763568394e-15 -1.50990331349e-14
                        CHANNELS 6 Xposition Yposition Zposition Zrotation Xrotation Yrotation
                        JOINT L_Skin_foot1_JNT
                        {
                          OFFSET 0.354766509726 -7.1054273576e-15 -3.5527136788e-15
                          CHANNELS 6 Xposition Yposition Zposition Zrotation Xrotation Yrotation
                          JOINT L_Skin_foot2_JNT
                          {
                            OFFSET 0.195481811662 0.0 -1.7763568394e-15
                            CHANNELS 6 Xposition Yposition Zposition Zrotation Xrotation Yrotation
                            JOINT L_Skin_footTip_JNT
                            {
                              OFFSET 0.180941530074 5.96744875736e-16 0.0
                              CHANNELS 6 Xposition Yposition Zposition Zrotation Xrotation Yrotation
                              End Site
                              {
                                OFFSET 0 0 0
                              }
                            }
                          }
                        }
                      }
                    }
                  }
                }
                JOINT R_Skin_clavicle_JNT
                {
                  OFFSET 0.00312131042964 0.0596072851344 0.382412355971
                  CHANNELS 6 Xposition Yposition Zposition Zrotation Xrotation Yrotation
                  JOINT R_Skin_shoulder_JNT
                  {
                    OFFSET -0.910590683948 -2.79570239137e-06 -4.4408920985e-15
                    CHANNELS 6 Xposition Yposition Zposition Zrotation Xrotation Yrotation
                    JOINT R_Skin_edbow_JNT
                    {
                      OFFSET -0.940268042892 -3.9549336952e-06 -3.5527136788e-15
                      CHANNELS 6 Xposition Yposition Zposition Zrotation Xrotation Yrotation
                      JOINT R_Skin_wrist_JNT
                      {
                        OFFSET -1.30583549991 1.93787637315e-06 0.0
                        CHANNELS 6 Xposition Yposition Zposition Zrotation Xrotation Yrotation
                        JOINT R_Skin_foot1_JNT
                        {
                          OFFSET -0.354767395715 -1.27959533636e-06 -8.881784197e-16
                          CHANNELS 6 Xposition Yposition Zposition Zrotation Xrotation Yrotation
                          JOINT R_Skin_foot2_JNT
                          {
                            OFFSET -0.195477166447 2.29827840403e-06 -8.881784197e-16
                            CHANNELS 6 Xposition Yposition Zposition Zrotation Xrotation Yrotation
                            JOINT R_Skin_footTip_JNT
                            {
                              OFFSET -0.180944003358 6.89551508809e-08 8.881784197e-16
                              CHANNELS 6 Xposition Yposition Zposition Zrotation Xrotation Yrotation
                              End Site
                              {
                                OFFSET 0 0 0
                              }
                            }
                          }
                        }
                      }
                    }
                  }
                }
              }
            }
          }
        }
      }
    }
  }
  JOINT L_Skin_hip_JNT
  {
    OFFSET 0.0487097145293 -0.348980050021 -0.41779413641
    CHANNELS 6 Xposition Yposition Zposition Zrotation Xrotation Yrotation
    JOINT L_Skin_knee_JNT
    {
      OFFSET 1.16045455622 -1.7763568394e-15 8.881784197e-16
      CHANNELS 6 Xposition Yposition Zposition Zrotation Xrotation Yrotation
      JOINT L_Skin_ankle_JNT
      {
        OFFSET 1.4217066572 -8.881784197e-16 -2.30926389122e-14
        CHANNELS 6 Xposition Yposition Zposition Zrotation Xrotation Yrotation
        JOINT L_Skin_ball_JNT
        {
          OFFSET 0.814265595898 -1.7763568394e-15 1.50990331349e-14
          CHANNELS 6 Xposition Yposition Zposition Zrotation Xrotation Yrotation
          JOINT L_Skin_toe_JNT
          {
            OFFSET 0.181323767428 -8.881784197e-16 9.7699626167e-15
            CHANNELS 6 Xposition Yposition Zposition Zrotation Xrotation Yrotation
            JOINT L_Skin_toeTip_JNT
            {
              OFFSET 0.208347860175 0.0 8.881784197e-16
              CHANNELS 6 Xposition Yposition Zposition Zrotation Xrotation Yrotation
              End Site
              {
                OFFSET 0 0 0
              }
            }
          }
        }
      }
    }
  }
  JOINT R_Skin_hip_JNT
  {
    OFFSET 0.0487124874295 -0.210744420335 0.417794
    CHANNELS 6 Xposition Yposition Zposition Zrotation Xrotation Yrotation
    JOINT R_Skin_knee_JNT
    {
      OFFSET -1.16045778988 2.873763564e-06 0.0
      CHANNELS 6 Xposition Yposition Zposition Zrotation Xrotation Yrotation
      JOINT R_Skin_ankle_JNT
      {
        OFFSET -1.42170161863 -5.70296045055e-07 -8.881784197e-16
        CHANNELS 6 Xposition Yposition Zposition Zrotation Xrotation Yrotation
        JOINT R_Skin_ball_JNT
        {
          OFFSET -0.814262521828 8.46352387818e-06 -8.881784197e-16
          CHANNELS 6 Xposition Yposition Zposition Zrotation Xrotation Yrotation
          JOINT R_Skin_toe_JNT
          {
            OFFSET -0.181329158728 -3.30069482457e-06 8.881784197e-16
            CHANNELS 6 Xposition Yposition Zposition Zrotation Xrotation Yrotation
            JOINT R_Skin_toeTip_JNT
            {
              OFFSET -0.208348907902 2.71287027509e-07 -8.881784197e-16
              CHANNELS 6 Xposition Yposition Zposition Zrotation Xrotation Yrotation
              End Site
              {
                OFFSET 0 0 0
              }
            }
          }
        }
      }
    }
  }
  JOINT Skin_tail1_JNT
  {
    OFFSET -0.366349460513 0.0784844272726 -1.62691848398e-16
    CHANNELS 6 Xposition Yposition Zposition Zrotation Xrotation Yrotation
    JOINT Skin_tail2_JNT
    {
      OFFSET 0.182306910239 0.0 -4.04802658592e-17
      CHANNELS 6 Xposition Yposition Zposition Zrotation Xrotation Yrotation
      JOINT Skin_tail3_JNT
      {
        OFFSET 0.182306910239 0.0 -4.04802658592e-17
        CHANNELS 6 Xposition Yposition Zposition Zrotation Xrotation Yrotation
        JOINT Skin_tail4_JNT
        {
          OFFSET 0.182306910239 0.0 -4.04802658592e-17
          CHANNELS 6 Xposition Yposition Zposition Zrotation Xrotation Yrotation
          JOINT Skin_tail5_JNT
          {
            OFFSET 0.182306910239 0.0 -4.04802658592e-17
            CHANNELS 6 Xposition Yposition Zposition Zrotation Xrotation Yrotation
            JOINT Skin_tail6_JNT
            {
              OFFSET 0.182306910239 0.0 -4.04802658592e-17
              CHANNELS 6 Xposition Yposition Zposition Zrotation Xrotation Yrotation
              JOINT Skin_tail7_JNT
              {
                OFFSET 0.182306910239 0.0 -4.04802658592e-17
                CHANNELS 6 Xposition Yposition Zposition Zrotation Xrotation Yrotation
                JOINT Skin_tail8_JNT
                {
                  OFFSET 0.182306910239 0.0 -4.04802658592e-17
                  CHANNELS 6 Xposition Yposition Zposition Zrotation Xrotation Yrotation
                  JOINT Skin_tail9_JNT
                  {
                    OFFSET 0.182306910239 0.0 -4.04802658592e-17
                    CHANNELS 6 Xposition Yposition Zposition Zrotation Xrotation Yrotation
                    JOINT Skin_tail10_JNT
                    {
                      OFFSET 0.182306910239 0.0 -4.04802658592e-17
                      CHANNELS 6 Xposition Yposition Zposition Zrotation Xrotation Yrotation
                      JOINT Skin_tail11_JNT
                      {
                        OFFSET 0.182306910239 4.4408920985e-16 -4.04802658592e-17
                        CHANNELS 6 Xposition Yposition Zposition Zrotation Xrotation Yrotation
                        JOINT Skin_tail12_JNT
                        {
                          OFFSET 0.182306910239 -8.881784197e-16 -4.04802658592e-17
                          CHANNELS 6 Xposition Yposition Zposition Zrotation Xrotation Yrotation
                          JOINT Skin_tail13_JNT
                          {
                            OFFSET 0.182306910239 0.0 -4.04802658592e-17
                            CHANNELS 6 Xposition Yposition Zposition Zrotation Xrotation Yrotation
                            JOINT Skin_tail14_JNT
                            {
                              OFFSET 0.182306910239 4.4408920985e-16 -4.04802658592e-17
                              CHANNELS 6 Xposition Yposition Zposition Zrotation Xrotation Yrotation
                              JOINT Skin_tail15_JNT
                              {
                                OFFSET 0.182306910239 4.4408920985e-16 -4.04802658592e-17
                                CHANNELS 6 Xposition Yposition Zposition Zrotation Xrotation Yrotation
                                JOINT Skin_tail16_JNT
                                {
                                  OFFSET 0.182306910239 -4.4408920985e-16 -4.04802658592e-17
                                  CHANNELS 6 Xposition Yposition Zposition Zrotation Xrotation Yrotation
                                  JOINT Skin_tail17_JNT
                                  {
                                    OFFSET 0.182306910239 8.881784197e-16 -4.04802658592e-17
                                    CHANNELS 6 Xposition Yposition Zposition Zrotation Xrotation Yrotation
                                    JOINT Skin_tail18_JNT
                                    {
                                      OFFSET 0.182306910239 -8.881784197e-16 -4.04802658592e-17
                                      CHANNELS 6 Xposition Yposition Zposition Zrotation Xrotation Yrotation
                                      JOINT Skin_tail19_JNT
                                      {
                                        OFFSET 0.182306910239 4.4408920985e-16 -4.04802658592e-17
                                        CHANNELS 6 Xposition Yposition Zposition Zrotation Xrotation Yrotation
                                        End Site
                                        {
                                          OFFSET 0 0 0
                                        }
                                      }
                                    }
                                  }
                                }
                              }
                            }
                          }
                        }
                      }
                    }
                  }
                }
              }
            }
          }
        }
      }
    }
  }
}
MOTION
Frames: 2.0
Frame Time: 0.0416666666667
0.0594867505735 3.03782036575 8.26711507537 2.5507 0.7647 -95.33923 0.644014782729 5.46229728116e-13 2.6645352591e-15 -0.46302 0.00293 -0.36325 0.46906938421 8.881784197e-16 0.0 0.69235 -0.60676 0.57366 0.471437075838 -1.7763568394e-15 8.881784197e-16 3.12224 -0.1601 2.4755 0.472590135537 0.0 3.5527136788e-15 3.62972 0.7653 3.88504 0.474476884584 -1.33226762955e-15 -1.7763568394e-15 -3.29042 0.94512 3.55241 0.466411896702 -1.7763568394e-15 3.5527136788e-15 -12.50987 0.45701 2.64318 0.456311183926 -2.6645352591e-15 2.6645352591e-15 -9.29029 0.0 0.89946 0.341610632589 1.58113936077e-06 1.03370814131e-07 25.48382 0.63446 5.19457 0.184473994624 -1.11022302463e-15 1.7763568394e-15 0.04875 1.69136 0.03112 0.184499697943 -6.88338275268e-15 8.881784197e-16 -0.04168 1.69096 0.04083 0.184692478333 -5.44009282066e-15 -1.7763568394e-15 -0.05554 1.69099 0.02364 0.184932485959 4.10782519111e-15 1.7763568394e-15 0.26393 1.69294 -0.0773 0.184703300783 -7.21644966006e-15 0.0 -0.70322 1.69944 -0.1453 0.193620833307 0.00477040198153 3.5527136788e-15 2.14164 -0.00105 35.24037 0.766066184347 -0.215410263987 -6.2172489379e-15 0.0 0.0 0.0 -0.00135682873761 -0.109627354141 -0.000405459187109 -42.3098 -1e-05 0.0 0.80327889985 -5.3290705182e-15 2.6645352591e-15 43.47605 -1e-05 90.0 0.00184010112552 0.07508800433 -0.384558133504 -71.62817 0.0 0.0 0.910590239312 0.0 -7.9936057773e-15 -64.1596 15.07267 1.99336 0.940271685332 2.22044604925e-15 6.2172489379e-15 48.94756 0.0 0.0 1.30583589376 -3.5527136788e-15 -9.7699626167e-15 -74.6171 81.17255 63.83996 0.354766509726 -8.881784197e-16 -5.3290705182e-15 89.99983 -59.88271 89.99998 0.195481811662 -5.3290705182e-15 8.881784197e-16 29.40732 0.0 0.0 0.180941530074 -5.3290705182e-15 1.7763568394e-15 0.0 0.0 0.0 0.00792754911948 0.00551563667143 0.382880811153 135.13625 0.0 0.0 -0.910590683948 -2.79570239137e-06 8.881784197e-16 -47.33591 -7.16325 -0.86093 -0.940268042892 -3.95493369076e-06 -4.4408920985e-15 58.62938 0.0 0.0 -1.30583549991 1.9378763767e-06 2.6645352591e-15 33.23553 1.58544 1.89732 -0.354767395715 -1.27959533636e-06 2.6645352591e-15 -9.54471 0.0 0.0 -0.195477166447 2.29827840759e-06 3.5527136788e-15 29.40732 0.0 0.0 -0.180944003358 6.89551516997e-08 8.881784197e-16 0.0 0.0 0.0 0.0487097145293 -0.423642522281 -0.41779413641 -43.87516 -10.17491 -2.36256 1.16045455622 -8.881784197e-16 0.0 -74.95069 0.0 0.0 1.4217066572 1.7763568394e-15 -2.57571741713e-14 90.28846 0.0 0.0 0.814265595898 -8.881784197e-16 1.68753899743e-14 1.49097 5.73994 2.86553 0.181323767428 -1.33226762955e-15 1.24344978758e-14 15.58166 2e-05 0.0 0.208347860175 -1.33226762955e-15 0.0 0.0 0.0 0.0 0.0487124874295 -0.210744420335 0.417794 103.31334 4.32269 -1.02267 -1.16045778988 2.873763564e-06 8.881784197e-16 -74.84333 0.0 0.0 -1.42170161863 -5.70296044833e-07 -4.4408920985e-15 40.11694 0.0 0.0 -0.814262521828 8.46352388084e-06 2.6645352591e-15 52.81593 2.06528 1.72918 -0.181329158728 -3.30069482413e-06 -2.6645352591e-15 15.58166 -2e-05 0.0 -0.208348907902 2.71287028841e-07 0.0 0.0 0.0 0.0 -0.366349460513 0.0784844272726 8.881784197e-16 16.30919 -0.0 179.99999 0.182306910239 2.22044604925e-16 -8.881784197e-16 -1.73613 0.0 0.0 0.182306910239 4.4408920985e-16 -8.881784197e-16 -2.25544 0.0 0.0 0.182306910239 5.55111512313e-16 0.0 -2.92893 0.0 0.0 0.182306910239 8.881784197e-16 0.0 -3.56284 0.0 0.0 0.182306910239 1.27675647832e-15 -8.881784197e-16 -3.2806 0.0 0.0 0.182306910239 1.52655665886e-15 0.0 -1.70028 0.0 0.0 0.182306910239 9.02056207508e-16 0.0 -0.23015 0.0 0.0 0.182306910239 4.71844785466e-16 0.0 1.96439 0.0 0.0 0.182306910239 2.49800180541e-16 8.881784197e-16 4.04188 0.0 0.0 0.182306910239 4.4408920985e-16 8.881784197e-16 4.07863 0.0 0.0 0.182306910239 -6.66133814775e-16 0.0 3.20231 0.0 0.0 0.182306910239 -2.22044604925e-16 0.0 2.65894 0.0 0.0 0.182306910239 -2.22044604925e-16 0.0 4.32741 0.0 0.0 0.182306910239 2.22044604925e-16 0.0 4.725 0.0 0.0 0.182306910239 -6.66133814775e-16 0.0 3.90445 0.0 0.0 0.182306910239 6.66133814775e-16 -8.881784197e-16 3.01394 0.0 0.0 0.182306910239 -1.55431223448e-15 0.0 2.31262 0.0 0.0 0.182306910239 -2.22044604925e-16 0.0 0.0 0.0 -90.0 
0.0462504974332 3.03375400758 8.47063270513 1.80697 0.76566 -94.1445 0.644014782729 5.47117906535e-13 8.881784197e-16 -0.46153 0.00486 -0.60447 0.468923637286 0.0 -1.7763568394e-15 0.78655 -0.38363 0.0911 0.471436741812 4.4408920985e-16 2.6645352591e-15 3.34033 0.00013 1.99448 0.473215043567 4.4408920985e-16 0.0 3.86516 0.90343 3.46239 0.475795955485 -8.881784197e-16 -8.881784197e-16 -3.38756 1.15197 3.39419 0.466863611959 8.881784197e-16 -3.5527136788e-15 -13.11699 0.68703 2.75392 0.455586374117 8.881784197e-16 0.0 -9.75591 0.0 0.99895 0.341610682729 1.66167198046e-06 1.24870833673e-07 26.18937 0.70623 5.7873 0.184472311865 2.88657986403e-15 1.7763568394e-15 0.04845 1.8526 0.03404 0.184486334856 -5.66213742559e-15 -2.6645352591e-15 -0.04255 1.85273 0.04598 0.184654181817 -9.99200722163e-16 -8.881784197e-16 -0.05646 1.85274 0.02764 0.184871510692 5.88418203051e-15 -1.7763568394e-15 0.26664 1.85188 -0.08567 0.184688474906 -5.44009282066e-15 -1.7763568394e-15 -0.69548 1.85214 -0.16366 0.193620833307 0.00477040198153 -3.5527136788e-15 0.03619 0.00053 40.17478 0.766066184347 -0.215410263987 -9.7699626167e-15 0.0 0.0 0.0 -0.0012205113442 -0.109648873562 -0.000369072940772 -42.3098 -1e-05 0.0 0.80327889985 1.7763568394e-15 -3.5527136788e-15 43.47605 -1e-05 90.0 0.00335304514382 0.0580224144492 -0.384382143233 -66.01451 0.0 0.0 0.910590239312 -3.5527136788e-15 -8.881784197e-16 -78.19465 15.85206 3.43844 0.940271685332 1.11022302463e-16 1.33226762955e-14 84.01636 0.0 0.0 1.30583589376 1.7763568394e-15 -4.4408920985e-15 -101.42705 79.99451 71.76312 0.354766509726 -8.881784197e-16 5.3290705182e-15 -90.0 -29.81382 -90.0 0.195481811662 -2.6645352591e-15 2.6645352591e-15 29.40732 0.0 0.0 0.180941530074 -5.3290705182e-15 8.881784197e-16 0.0 0.0 0.0 0.0054138766029 0.0336214061137 0.382743854415 133.45088 0.0 0.0 -0.910590683948 -2.79570238959e-06 6.2172489379e-15 -50.78901 -6.70215 -1.27901 -0.940268042892 -3.95493369076e-06 6.2172489379e-15 59.12643 0.0 0.0 -1.30583549991 1.93787637315e-06 7.1054273576e-15 39.96737 1.78799 1.95315 -0.354767395715 -1.27959533991e-06 2.6645352591e-15 -11.08328 0.0 0.0 -0.195477166447 2.29827840315e-06 -1.7763568394e-15 29.40732 0.0 0.0 -0.180944003358 6.89551471617e-08 8.881784197e-16 0.0 0.0 0.0 0.0487097145293 -0.405183566368 -0.41779413641 -45.58672 -8.52172 -2.58526 1.16045455622 -8.881784197e-16 0.0 -79.55853 0.0 0.0 1.4217066572 -8.881784197e-16 -2.39808173319e-14 90.81786 0.0 0.0 0.814265595898 0.0 1.42108547152e-14 7.17058 5.41612 2.58939 0.181323767428 -1.7763568394e-15 7.9936057773e-15 15.58166 -3e-05 0.0 0.208347860175 -1.33226762955e-15 2.6645352591e-15 0.0 0.0 0.0 0.0487124874295 -0.210744420335 0.417794 116.69694 2.40326 -2.66284 -1.16045778988 2.87376355956e-06 -2.6645352591e-15 -86.99823 0.0 0.0 -1.42170161863 -5.70296044167e-07 0.0 51.74992 0.0 0.0 -0.814262521828 8.46352388173e-06 8.881784197e-16 34.2904 2.05008 2.46103 -0.181329158728 -3.30069482501e-06 1.7763568394e-15 15.58166 -2e-05 0.0 -0.208348907902 2.71287029285e-07 -2.6645352591e-15 0.0 0.0 0.0 -0.366349460513 0.0784844272726 0.0 16.30919 -0.0 179.99999 0.182306910239 -1.11022302463e-15 8.881784197e-16 -1.73613 0.0 0.0 0.182306910239 -8.881784197e-16 8.881784197e-16 -2.25544 0.0 0.0 0.182306910239 -3.33066907388e-16 8.881784197e-16 -2.92893 0.0 0.0 0.182306910239 0.0 8.881784197e-16 -3.56284 0.0 0.0 0.182306910239 -6.66133814775e-16 0.0 -3.2806 0.0 0.0 0.182306910239 -1.02001740387e-15 0.0 -1.70028 0.0 0.0 0.182306910239 -1.05471187339e-15 8.881784197e-16 -0.23015 0.0 0.0 0.182306910239 -8.60422844084e-16 0.0 1.96439 0.0 0.0 0.182306910239 -7.77156117238e-16 0.0 4.04188 0.0 0.0 0.182306910239 -5.55111512313e-17 8.881784197e-16 4.07863 0.0 0.0 0.182306910239 -1.11022302463e-15 8.881784197e-16 3.20231 0.0 0.0 0.182306910239 0.0 0.0 2.65894 0.0 0.0 0.182306910239 2.22044604925e-16 0.0 4.32741 0.0 0.0 0.182306910239 4.4408920985e-16 0.0 4.725 0.0 0.0 0.182306910239 -6.66133814775e-16 -8.881784197e-16 3.90445 0.0 0.0 0.182306910239 8.881784197e-16 -8.881784197e-16 3.01394 0.0 0.0 0.182306910239 -4.4408920985e-16 -8.881784197e-16 2.31262 0.0 0.0 0.182306910239 8.881784197e-16 -1.7763568394e-15 0.0 0.0 -90.0 
